<?xml version="1.0" encoding="UTF-8" standalone="no"?>
<!-- Created with Inkscape (http://www.inkscape.org/) -->

<svg
   width="297mm"
   height="210mm"
   viewBox="0 0 297 210"
   version="1.1"
   id="svg5"
   inkscape:version="1.1 (c68e22c387, 2021-05-23)"
   sodipodi:docname="Antler Logo.svg"
   xmlns:inkscape="http://www.inkscape.org/namespaces/inkscape"
   xmlns:sodipodi="http://sodipodi.sourceforge.net/DTD/sodipodi-0.dtd"
   xmlns="http://www.w3.org/2000/svg"
   xmlns:svg="http://www.w3.org/2000/svg">
  <sodipodi:namedview
     id="namedview7"
     pagecolor="#ffffff"
     bordercolor="#666666"
     borderopacity="1.0"
     inkscape:pageshadow="2"
     inkscape:pageopacity="0.0"
     inkscape:pagecheckerboard="0"
     inkscape:document-units="mm"
     showgrid="false"
     inkscape:zoom="0.42819886"
     inkscape:cx="1138.4897"
     inkscape:cy="328.11857"
     inkscape:window-width="1366"
     inkscape:window-height="705"
     inkscape:window-x="-8"
     inkscape:window-y="-8"
     inkscape:window-maximized="1"
     inkscape:current-layer="layer2" />
  <defs
     id="defs2" />
  <g
     inkscape:groupmode="layer"
     id="layer2"
     inkscape:label="SVG vector">
    <path
       style="fill:#00c94b;fill-opacity:1;stroke:#ffffff;stroke-width:0.45039px;stroke-linecap:butt;stroke-linejoin:miter;stroke-opacity:1"
       d="m 30.675327,139.81147 c -3.451317,-8.44211 -5.345345,-4.38485 -5.507133,-10.49397 -0.181231,-6.84338 3.154109,-6.00101 4.493588,-12.17553 10.114735,-4.32478 21.798601,-7.86497 33.953721,-11.16954 5.545602,-7.123699 17.358942,-7.979676 31.419883,-6.588038 0.837174,-1.858164 4.039627,-3.71633 1.52031,-5.574495 C 94.468771,90.736578 73.454999,82.063324 71.581759,78.991956 68.460607,75.001193 65.458357,70.960502 64.372227,63.917195 62.836615,59.648068 62.105833,53.249231 64.629048,54.281671 l 3.547417,9.628671 c 1.658243,3.824143 3.601123,7.323001 6.588035,9.628669 7.602533,5.971339 20.116474,11.168382 29.39278,15.203165 4.51467,-0.526651 9.02934,-0.854245 13.54402,-2.103447 -15.28999,-15.084293 -12.74399,-27.610571 -5.80358,-35.39769 1.13832,-0.214288 1.61943,0.119107 1.61054,0.860823 -7.93722,12.172603 5.3454,29.983152 13.96054,32.079365 6.19849,0.875843 12.23421,-1.340864 18.2438,-4.054174 -1.54482,-6.496413 -10.00931,-17.675259 -2.03172,-36.124292 0.95941,-1.016531 1.62593,-1.007957 1.82113,0.650241 -4.18813,17.111605 2.15321,24.419892 8.82572,31.419872 6.23618,-2.484525 12.34291,-5.673886 17.08678,-11.503039 3.45536,-6.716599 4.29979,-16.371718 -0.21521,-30.778879 -3.74524,-16.656455 -0.0264,-24.8752689 4.91962,-31.7068129 2.56983,-1.96320771 1.84323,-0.1904749 1.67767,0.9464351 -5.34007,13.7247738 -3.30958,19.3359778 -0.30544,30.2628548 3.53326,8.6161 5.48323,17.124311 5.57451,25.549188 0.28055,4.87552 9.53164,3.394741 20.92573,1.520316 10.97147,-0.999481 17.35942,-3.17427 19.91685,-6.65977 4.8234,-4.606106 3.6755,-12.894705 5.99565,-21.212697 2.50914,-3.635405 5.80317,-6.093435 9.05478,-8.615124 2.44641,-0.246082 -0.29457,3.650191 -4.48921,8.906693 -2.99537,5.12641 1.49003,17.850994 -8.31893,29.316421 5.98281,4.434041 9.64552,9.530963 10.27429,15.49473 3.84616,12.008907 9.79997,18.297039 16.30231,23.09631 0.88053,0.657 1.1254,1.26859 -0.65488,1.73552 -22.08979,-8.926688 -20.04794,-24.946297 -28.31674,-32.581508 -5.31287,-5.11761 -32.69464,-0.877166 -42.28193,1.740147 -13.15498,5.116557 -20.88383,13.330663 -33.92219,18.664048 -6.62207,2.708784 -16.81312,5.226377 -19.69112,5.813452 -4.33011,0.883286 -16.20915,-0.227218 -20.72485,3.538439 11.56788,-2.49687 20.97342,-2.831428 26.41465,0.798342 1.92508,2.13071 -0.20449,4.80936 -6.11174,7.99849 -3.79778,5.04291 -8.6269,7.78515 -15.17269,6.6979 0.79724,8.28739 6.87204,16.2993 15.61879,21.32054 8.74676,5.02125 19.05329,6.33738 28.47039,5.91687 L 168.01058,169.31896 148.24645,210.3675 73.178994,175.75289 67.16292,157.66318 53.480068,142.54137 c -3.456362,-3.06549 -14.145305,-2.37003 -22.804741,-2.7299 z"
       id="path870"
       sodipodi:nodetypes="cscccccccccccccccccccccccccccccccccccssccccsccccccc" />
  </g>
</svg>
